# Blender 3.4.1
# www.blender.org
mtllib cow.mtl
o Cube.001
v 2.222118 -0.264282 0.410977
v 2.222118 0.949222 0.369081
v 2.222118 -0.264282 -0.601091
v 2.222118 0.949222 -0.559195
v 3.817560 -0.133377 0.117825
v 3.949070 0.314535 0.117825
v 3.817560 -0.133377 -0.305995
v 3.949070 0.314535 -0.305995
v 2.575342 1.009500 -0.611846
v 2.591980 -0.299329 -0.692041
v 2.591980 1.009500 0.422290
v 2.591980 -0.299329 0.502486
v 3.949070 0.314535 -0.110684
v 2.591980 1.165994 -0.085909
v 2.630368 0.676507 -0.439560
v 2.703438 0.891945 -0.565803
v 2.587564 0.550302 -0.815023
v 2.710802 0.913657 -0.909749
v 2.765536 0.630663 -0.439560
v 2.838605 0.846101 -0.565803
v 2.722731 0.504457 -0.815023
v 2.845969 0.867812 -0.909749
v 2.597456 0.538389 0.648541
v 2.721210 0.903267 0.738856
v 2.637867 0.657538 0.275199
v 2.713594 0.880813 0.414615
v 2.707633 0.501020 0.648541
v 2.831388 0.865899 0.738856
v 2.748044 0.620170 0.275199
v 2.823772 0.843444 0.414615
v 3.906160 0.168385 0.020074
v 3.888244 0.107367 0.022639
v 3.888868 0.109492 -0.027332
v 3.906728 0.170321 -0.027938
v 3.906078 0.168105 -0.143510
v 3.888825 0.109346 -0.145465
v 3.888806 0.109279 -0.199276
v 3.905460 0.166002 -0.191438
v 3.880044 0.178951 0.020074
v 3.862128 0.117933 0.022639
v 3.862752 0.120058 -0.027332
v 3.880612 0.180887 -0.027938
v 3.879962 0.178671 -0.143510
v 3.862709 0.119912 -0.145465
v 3.862690 0.119845 -0.199276
v 3.879344 0.176568 -0.191438
v 1.763653 -0.451576 0.344566
v 1.763653 0.888158 0.344566
v 1.763653 0.888158 -0.534680
v 1.763653 -0.451576 -0.534680
v 1.329640 -0.659066 0.490031
v 1.329640 0.775825 0.563190
v 1.329640 0.775825 -0.753304
v 1.329640 -0.659066 -0.680145
v 3.161333 0.680682 -0.476630
v 3.081987 -0.219718 0.380420
v 3.081987 -0.219718 -0.569345
v 3.161333 0.680682 0.287733
v 3.161333 0.768559 -0.096661
v 3.283364 0.610205 -0.447649
v 3.233504 -0.187516 0.301205
v 3.283364 0.683375 -0.098966
v 3.233504 -0.187516 -0.489583
v 3.283364 0.610205 0.258893
v 3.151711 0.531093 0.286319
v 3.142557 0.425137 0.257448
v 2.996326 0.613491 0.317125
v 2.985875 0.476590 0.323761
v 3.042446 0.549837 -0.502315
v 3.033844 0.437161 -0.507777
v 3.200638 0.489646 -0.470471
v 3.189754 0.413592 -0.440504
v 3.149580 0.530584 0.276376
v 3.140924 0.427700 0.248263
v 2.998264 0.610824 0.306375
v 2.988086 0.477508 0.312837
v 3.044339 0.547529 -0.491535
v 3.035963 0.437803 -0.496854
v 3.198389 0.488914 -0.460525
v 3.187945 0.415267 -0.431347
v 2.746078 0.920504 0.385871
v 2.591980 0.826669 0.433493
v 2.628507 0.881112 -0.675991
v 2.718235 0.937539 -0.652589
v 2.674282 0.958065 0.710692
v 2.639889 0.977928 0.718821
v 2.639889 0.937122 0.721321
v 2.596144 1.050750 -0.913021
v 2.596144 1.001395 -0.916045
v 2.632716 1.029629 -0.904336
v -1.158667 -1.054106 0.276576
v -1.158667 -0.575832 0.276576
v -1.158667 -1.054106 -0.466265
v -1.158667 -0.575832 -0.466265
v -0.415826 -1.054106 0.276576
v -0.415826 -0.575832 0.276576
v -0.415826 -1.054106 -0.466265
v -0.415826 -0.575832 -0.466265
v -0.969054 -1.538255 -0.260783
v -0.952668 -1.109416 -0.260783
v -0.969054 -1.538255 -0.382220
v -0.952668 -1.109416 -0.382220
v -0.836281 -1.538255 -0.260783
v -0.831231 -1.109416 -0.260783
v -0.836281 -1.538255 -0.382220
v -0.831231 -1.109416 -0.382220
v -0.702924 -1.538255 -0.260783
v -0.709259 -1.109416 -0.260783
v -0.702924 -1.538255 -0.382220
v -0.709259 -1.109416 -0.382220
v -0.570152 -1.538255 -0.260783
v -0.587821 -1.109416 -0.260783
v -0.570152 -1.538255 -0.382220
v -0.587821 -1.109416 -0.382220
v -0.702924 -1.538255 0.132917
v -0.709259 -1.109416 0.132917
v -0.702924 -1.538255 0.011480
v -0.709259 -1.109416 0.011480
v -0.570152 -1.538255 0.132917
v -0.587821 -1.109416 0.132917
v -0.570152 -1.538255 0.011480
v -0.587821 -1.109416 0.011480
v -0.999121 -1.538255 0.132917
v -0.980169 -1.109416 0.132917
v -0.999121 -1.538255 0.011480
v -0.980169 -1.109416 0.011480
v -0.866350 -1.538255 0.132917
v -0.858732 -1.109416 0.132917
v -0.866350 -1.538255 0.011480
v -0.858732 -1.109416 0.011480
v -1.069211 -1.318673 0.276576
v -0.551475 -1.318673 0.276576
v -0.576206 -1.318673 -0.466265
v -1.089886 -1.318673 -0.466265
v -1.158667 -1.318673 -0.293813
v -1.158667 -1.318673 0.093225
v -0.415826 -1.318673 0.022394
v -0.415826 -1.318673 -0.308611
v -0.198551 0.806122 -0.084279
v -0.083208 0.591513 0.707915
v -0.087348 0.591513 -0.899446
v 1.430348 0.999878 -0.110256
v 1.455443 0.823828 -0.903420
v 1.459582 0.823828 0.703941
v 1.726989 -0.451198 0.033995
v 1.265462 -0.430412 0.035184
v 1.728178 -0.451198 0.495854
v 1.266651 -0.430412 0.497043
v 1.447338 -2.534833 0.124208
v 1.182037 -2.522134 0.124935
v 1.448022 -2.534833 0.406383
v 1.182721 -2.522134 0.407109
v 1.703163 -0.465516 -0.725248
v 1.284000 -0.446638 -0.724168
v 1.704243 -0.465516 -0.305866
v 1.285080 -0.446638 -0.304787
v 1.435355 -2.519046 -0.644825
v 1.191587 -2.507377 -0.644158
v 1.435983 -2.519046 -0.385604
v 1.192215 -2.507377 -0.384937
v -1.226758 -0.404229 -0.790557
v -1.717014 -0.382149 -0.789294
v -1.225494 -0.404229 -0.300123
v -1.715750 -0.382149 -0.298860
v -1.197269 -2.512328 -0.700558
v -1.472414 -2.499158 -0.699805
v -1.196560 -2.512328 -0.408018
v -1.471705 -2.499158 -0.407265
v -1.202098 -0.407990 0.091048
v -1.737572 -0.383873 0.092427
v -1.200718 -0.407990 0.626866
v -1.736192 -0.383873 0.628245
v -1.200924 -2.509245 0.228830
v -1.464202 -2.496643 0.229551
v -1.200246 -2.509245 0.508831
v -1.463524 -2.496643 0.509552
v 1.805862 -0.348156 -0.760279
v 1.941338 0.547590 -0.747683
v 1.810002 -0.348156 0.556601
v 1.851840 0.435202 0.542756
v -1.807402 -0.672118 -0.895157
v -1.630138 0.695606 -0.895473
v -1.803263 -0.672118 0.712204
v -1.625998 0.695606 0.711888
v -2.013743 -0.101102 -0.894599
v -1.965351 -0.098506 0.712762
v -1.555051 -0.896188 -0.895807
v -1.574762 -0.896188 0.711615
v 1.849725 0.599108 -0.116471
v -1.827450 0.948772 -0.058302
v -2.149729 -0.010528 -0.080896
v -1.744010 -0.672118 -0.115994
v 1.888607 -0.548906 -0.135521
v 1.905562 -0.252404 -0.139745
v -0.084427 -0.894211 -0.870386
v -0.077592 -0.893053 0.678319
v 1.681895 -0.855941 -0.817643
v 1.676369 -0.858328 0.616919
vn -0.1320 0.9912 -0.0000
vn 0.2230 0.0383 -0.9741
vn -0.1518 0.0604 0.9866
vn 0.0923 -0.9957 -0.0000
vn -0.5056 0.8627 -0.0000
vn 0.5243 0.8301 0.1898
vn -0.0943 -0.9955 -0.0000
vn 0.3328 0.0480 0.9418
vn -0.2334 0.0565 -0.9707
vn -0.9470 0.3212 -0.0000
vn 0.4315 0.8829 -0.1853
vn -0.0770 -0.2270 -0.9709
vn 0.9470 -0.3212 -0.0000
vn 0.1559 0.4595 0.8744
vn -0.3027 -0.8925 0.3345
vn 0.3205 0.9449 0.0665
vn 0.1635 0.4820 -0.8608
vn -0.0733 -0.2161 0.9736
vn -0.3044 -0.8974 -0.3194
vn 0.3203 0.9445 -0.0729
vn 0.4499 -0.0000 -0.8931
vn -0.0579 0.0344 -0.9977
vn 0.3782 -0.9257 -0.0000
vn -0.1434 -0.0000 0.9897
vn -1.0000 -0.0000 -0.0000
vn 0.4313 -0.9022 -0.0000
vn 0.3379 -0.0479 0.9399
vn -0.2506 0.9681 -0.0000
vn 0.4323 0.8989 -0.0714
vn 0.2172 -0.0232 0.9758
vn 0.5227 0.8352 0.1708
vn 0.1604 -0.9871 -0.0000
vn 0.4310 0.8841 0.1808
vn 0.1214 -0.1001 0.9875
vn 0.5600 0.8072 -0.1867
vn 0.2079 -0.9782 -0.0000
vn 0.2009 0.0098 -0.9796
vn -0.3268 -0.9343 -0.1426
vn 0.4379 0.1286 0.8898
vn 0.2029 0.9695 -0.1373
vn 0.4081 0.1148 -0.9057
vn 0.9803 -0.0658 -0.1863
vn 0.9791 -0.0654 0.1927
vn 0.3656 0.9184 0.1512
vn -0.9748 0.0542 -0.2164
vn -0.4421 -0.8860 0.1401
vn -0.9824 0.0325 0.1837
vn 0.4015 -0.0118 -0.9158
vn -0.1458 0.9648 -0.2188
vn 0.7274 0.6665 0.1634
vn 0.0646 0.9672 -0.2458
vn -0.1449 0.9660 0.2141
vn 0.0450 0.9990 -0.0001
vn 0.0006 -0.0430 0.9991
vn -0.0478 -0.9989 0.0001
vn -0.0048 -0.0427 -0.9991
vn 0.9911 -0.1331 -0.0024
vn -0.9992 0.0400 0.0024
vn 0.0008 -0.0389 0.9992
vn -0.0046 -0.0386 -0.9992
vn 0.9916 -0.1294 -0.0024
vn -0.9990 0.0449 0.0024
vn 0.0003 -0.0511 0.9987
vn 0.9999 0.0139 -0.0024
vn -0.9934 -0.1147 0.0024
vn -0.0000 -0.0561 0.9984
vn -0.0059 -0.0654 -0.9978
vn 1.0000 0.0004 -0.0026
vn -0.9918 -0.1282 0.0026
vn 0.9877 0.0608 0.1439
vn 0.0171 -0.0199 0.9997
vn -0.8905 0.3808 0.2491
vn 0.0337 0.0209 -0.9992
vn 0.8272 -0.5619 0.0023
vn 0.4940 0.8694 0.0007
vn -0.9601 -0.2712 -0.0687
vn -0.9078 -0.4129 0.0739
vn 0.0658 0.9655 0.2520
vn -0.8838 0.4253 -0.1950
vn -0.9377 -0.3389 0.0763
vn 0.9870 -0.0586 -0.1495
vn 0.0013 -1.0000 0.0007
vn 0.0217 -0.9998 -0.0016
vn 0.2217 0.0323 -0.9746
vn 0.3062 -0.0899 -0.9477
vn -0.9101 -0.0325 -0.4131
vn -0.1518 0.0605 0.9866
vn -0.2370 0.0335 0.9709
vn -0.1943 0.9375 0.2887
vn -0.2013 0.9406 -0.2735
vn 0.5582 0.7930 0.2442
vn 0.1979 -0.0578 0.9785
vn 0.2618 0.0590 0.9633
vn 0.2235 0.1097 0.9685
vn 0.2921 0.0240 0.9561
vn -0.1530 0.0341 -0.9876
vn -0.7371 0.0320 -0.6750
vn 0.4846 0.8747 -0.0000
vn 0.3379 -0.0479 -0.9399
vn -0.1434 -0.0000 -0.9897
vn -0.0579 0.0344 0.9977
vn 0.4499 -0.0000 0.8931
vn 0.5504 0.7953 -0.2541
vn 0.5475 0.8153 -0.1886
vn 0.1836 -0.0211 0.9828
vn 0.5650 0.8044 0.1839
vn 0.1840 -0.0540 0.9814
vn 0.3513 -0.2743 0.8952
vn 0.2884 0.1107 0.9511
vn 0.5232 0.8340 -0.1750
vn 0.2410 0.0183 -0.9703
vn -0.3268 -0.9343 -0.1427
vn 0.4226 0.1313 0.8967
vn 0.1883 0.9776 -0.0940
vn 0.4457 0.1050 -0.8890
vn 0.9803 -0.0658 -0.1862
vn 0.3748 0.9081 0.1868
vn -0.9773 0.0579 -0.2037
vn -0.4420 -0.8860 0.1401
vn -0.9777 0.0278 0.2081
vn 0.2491 0.0055 -0.9684
vn 0.3157 -0.1017 -0.9434
vn 0.2251 0.1073 -0.9684
vn 0.4311 0.0108 -0.9022
vn -0.1180 0.9562 -0.2678
vn 0.6860 0.7158 0.1302
vn 0.0797 0.9592 -0.2713
vn -0.1093 0.9553 0.2747
vn 0.0007 -0.0430 0.9991
vn -0.0045 -0.0427 -0.9991
vn 0.9911 -0.1331 -0.0026
vn -0.9992 0.0400 0.0026
vn 0.0009 -0.0389 0.9992
vn -0.0043 -0.0386 -0.9992
vn 0.9916 -0.1294 -0.0026
vn -0.9990 0.0449 0.0026
vn -0.0045 -0.0428 -0.9991
vn 0.9999 0.0139 -0.0026
vn -0.9934 -0.1146 0.0026
vn -0.0055 -0.0655 -0.9978
vn 1.0000 0.0004 -0.0024
vn -0.9918 -0.1281 0.0024
vn 0.9766 -0.1499 0.1540
vn 0.9984 -0.0536 -0.0165
vn 0.9902 -0.0548 0.1284
vn 0.9833 0.0691 -0.1686
vn 0.3769 -0.0038 0.9263
vn 0.0026 -0.0000 1.0000
vn 0.0204 -0.1187 0.9927
vn 0.0326 0.1089 0.9935
vn 0.0222 0.0200 0.9996
vn 0.0027 -0.0002 1.0000
vn 0.0700 -0.0196 0.9974
vn -0.8968 0.2935 0.3310
vn -0.0026 0.0001 -1.0000
vn 0.0593 -0.4091 -0.9106
vn 0.7253 -0.1001 -0.6811
vn 0.0140 0.5261 -0.8503
vn -0.0025 0.0001 -1.0000
vn 0.0688 -0.1983 -0.9777
vn 0.0236 0.0454 -0.9987
vn 0.9577 -0.2118 -0.1949
vn 0.9572 -0.2300 0.1754
vn 0.6833 0.7171 -0.1376
vn -0.8411 -0.5231 0.1374
vn -0.6640 -0.7477 -0.0081
vn -0.6993 -0.7130 -0.0500
vn 0.0881 0.9529 0.2902
vn -0.9003 0.3097 -0.3058
vn -0.8514 -0.5176 -0.0847
vn 0.0021 -1.0000 -0.0000
vn 0.0198 -0.9998 0.0007
vn -0.9318 -0.3588 -0.0542
vn 0.2628 0.0590 -0.9630
vn 0.5556 -0.8030 0.2157
vn 0.5020 0.8648 0.0110
vn 0.4671 0.8711 0.1516
vn 0.5570 -0.7009 -0.4456
vn -0.9870 0.0098 0.1605
vn -0.9977 0.0042 -0.0683
vn 0.4790 0.8643 0.1534
vn 0.6357 -0.6524 -0.4126
vn 0.2968 -0.2749 0.9145
vn 0.2087 0.0314 -0.9775
vn 0.2103 0.0313 0.9771
vn 0.3157 -0.3879 -0.8660
vn 0.9595 -0.2817 -0.0000
vn 0.0036 0.0089 1.0000
vn 0.0120 0.0297 -0.9995
vn 0.3750 0.9270 -0.0013
vn -0.3747 -0.9262 -0.0418
vn -0.0495 -0.1224 0.9912
vn -0.0152 -0.0375 -0.9992
vn -0.3747 -0.9260 0.0455
vn 0.3747 0.9261 0.0441
vn -0.0000 -0.0000 -1.0000
vn 1.0000 -0.0000 -0.0000
vn -0.0000 -0.0000 1.0000
vn -0.8599 -0.2908 0.4195
vn -0.0000 1.0000 -0.0000
vn -0.9993 0.0382 -0.0000
vn 0.9999 -0.0118 -0.0000
vn -0.0000 -1.0000 -0.0000
vn -0.9999 -0.0148 -0.0000
vn 0.9992 0.0412 -0.0000
vn -0.9990 0.0442 -0.0000
vn 0.9998 -0.0178 -0.0000
vn 0.8038 -0.4121 0.4290
vn 0.6452 -0.3911 -0.6563
vn -0.9029 -0.2347 -0.3601
s 0
usemtl body.002
f 4//1 48//1 2//1
f 8//2 63//2 71//2
f 2//3 12//3 82//3
f 61//4 7//4 5//4
f 14//5 4//5 2//5
f 59//6 11//6 81//6
f 1//7 10//7 12//7
f 81//8 12//8 68//8
f 9//9 10//9 3//9
f 16//10 17//10 15//10
f 62//11 8//11 60//11
f 22//12 17//12 18//12
f 20//13 21//13 22//13
f 16//14 19//14 20//14
f 17//15 19//15 15//15
f 20//16 18//16 16//16
f 26//10 23//10 24//10
f 30//17 25//17 26//17
f 30//13 27//13 29//13
f 28//18 23//18 27//18
f 23//19 29//19 27//19
f 30//20 24//20 28//20
f 50//21 53//21 49//21
f 3//22 49//22 4//22
f 1//23 50//23 3//23
f 1//24 48//24 47//24
f 52//25 54//25 51//25
f 47//26 54//26 50//26
f 47//27 52//27 51//27
f 49//28 52//28 48//28
f 59//29 84//29 9//29
f 58//30 65//30 64//30
f 62//31 58//31 64//31
f 12//32 57//32 56//32
f 6//33 62//33 64//33
f 64//34 66//34 5//34
f 62//35 55//35 59//35
f 56//36 63//36 61//36
f 55//37 71//37 69//37
f 71//38 77//38 69//38
f 66//39 56//39 61//39
f 72//40 78//40 80//40
f 72//41 57//41 70//41
f 70//42 77//42 78//42
f 68//43 75//43 67//43
f 66//44 76//44 68//44
f 72//45 79//45 71//45
f 65//46 75//46 73//46
f 66//47 73//47 74//47
f 84//48 70//48 10//48
f 141//49 142//49 143//49
f 189//50 144//50 180//50
f 182//51 139//51 141//51
f 142//52 140//52 144//52
f 146//53 147//53 145//53
f 148//54 151//54 147//54
f 150//55 151//55 152//55
f 146//56 149//56 150//56
f 145//57 151//57 149//57
f 152//58 146//58 150//58
f 156//53 153//53 154//53
f 156//59 159//59 155//59
f 158//55 159//55 160//55
f 154//60 157//60 158//60
f 153//61 159//61 157//61
f 160//62 154//62 158//62
f 164//53 161//53 162//53
f 168//63 163//63 164//63
f 166//55 167//55 168//55
f 166//56 161//56 165//56
f 161//64 167//64 165//64
f 168//65 162//65 166//65
f 170//53 171//53 169//53
f 176//66 171//66 172//66
f 174//55 175//55 176//55
f 174//67 169//67 173//67
f 171//68 173//68 169//68
f 174//69 172//69 170//69
f 189//70 179//70 194//70
f 140//71 183//71 196//71
f 184//72 191//72 186//72
f 178//73 187//73 185//73
f 193//74 198//74 197//74
f 143//75 189//75 178//75
f 186//76 192//76 183//76
f 188//77 192//77 181//77
f 139//78 184//78 140//78
f 191//79 182//79 185//79
f 192//80 185//80 181//80
f 177//81 194//81 193//81
f 196//82 187//82 195//82
f 198//83 195//83 197//83
f 4//1 49//1 48//1
f 71//84 60//84 8//84
f 8//85 7//85 63//85
f 63//86 72//86 71//86
f 82//87 11//87 2//87
f 2//88 1//88 12//88
f 61//4 63//4 7//4
f 2//89 11//89 14//89
f 14//90 9//90 4//90
f 81//6 58//6 59//6
f 59//91 14//91 11//91
f 1//7 3//7 10//7
f 67//92 58//92 81//92
f 81//93 82//93 12//93
f 12//94 56//94 68//94
f 68//95 67//95 81//95
f 3//96 4//96 9//96
f 9//97 83//97 10//97
f 16//10 18//10 17//10
f 62//98 13//98 8//98
f 22//12 21//12 17//12
f 20//13 19//13 21//13
f 16//14 15//14 19//14
f 17//15 21//15 19//15
f 20//16 22//16 18//16
f 26//10 25//10 23//10
f 30//17 29//17 25//17
f 30//13 28//13 27//13
f 28//18 24//18 23//18
f 23//19 25//19 29//19
f 30//20 26//20 24//20
f 50//99 54//99 53//99
f 3//100 50//100 49//100
f 1//23 47//23 50//23
f 1//101 2//101 48//101
f 52//25 53//25 54//25
f 47//26 51//26 54//26
f 47//102 48//102 52//102
f 49//28 53//28 52//28
f 9//103 14//103 59//103
f 59//104 55//104 84//104
f 58//105 67//105 65//105
f 62//106 59//106 58//106
f 12//32 10//32 57//32
f 6//98 13//98 62//98
f 5//107 6//107 64//107
f 64//108 65//108 66//108
f 66//109 61//109 5//109
f 62//110 60//110 55//110
f 56//36 57//36 63//36
f 55//111 60//111 71//111
f 71//112 79//112 77//112
f 66//113 68//113 56//113
f 72//114 70//114 78//114
f 72//115 63//115 57//115
f 70//116 69//116 77//116
f 68//43 76//43 75//43
f 66//117 74//117 76//117
f 72//118 80//118 79//118
f 65//119 67//119 75//119
f 66//120 65//120 73//120
f 10//121 83//121 84//121
f 84//122 55//122 69//122
f 70//123 57//123 10//123
f 84//124 69//124 70//124
f 141//125 139//125 142//125
f 189//126 142//126 144//126
f 182//127 190//127 139//127
f 142//128 139//128 140//128
f 146//53 148//53 147//53
f 148//129 152//129 151//129
f 150//55 149//55 151//55
f 146//130 145//130 149//130
f 145//131 147//131 151//131
f 152//132 148//132 146//132
f 156//53 155//53 153//53
f 156//133 160//133 159//133
f 158//55 157//55 159//55
f 154//134 153//134 157//134
f 153//135 155//135 159//135
f 160//136 156//136 154//136
f 164//53 163//53 161//53
f 168//63 167//63 163//63
f 166//55 165//55 167//55
f 166//137 162//137 161//137
f 161//138 163//138 167//138
f 168//139 164//139 162//139
f 170//53 172//53 171//53
f 176//66 175//66 171//66
f 174//55 173//55 175//55
f 174//140 170//140 169//140
f 171//141 175//141 173//141
f 174//142 176//142 172//142
f 177//143 178//143 189//143
f 189//144 180//144 179//144
f 179//145 193//145 194//145
f 194//146 177//146 189//146
f 179//147 180//147 144//147
f 140//148 184//148 186//148
f 179//149 144//149 140//149
f 196//150 198//150 179//150
f 183//151 188//151 196//151
f 140//152 186//152 183//152
f 196//153 179//153 140//153
f 184//154 190//154 191//154
f 185//155 182//155 141//155
f 141//156 143//156 178//156
f 178//157 177//157 197//157
f 197//158 195//158 187//158
f 187//159 181//159 185//159
f 185//160 141//160 178//160
f 178//161 197//161 187//161
f 197//162 177//162 193//162
f 193//163 179//163 198//163
f 143//164 142//164 189//164
f 186//165 191//165 192//165
f 181//166 187//166 188//166
f 188//167 183//167 192//167
f 139//168 190//168 184//168
f 191//169 190//169 182//169
f 192//170 191//170 185//170
f 196//171 188//171 187//171
f 198//172 196//172 195//172
usemtl Material.004
f 9//173 89//173 83//173
f 88//174 90//174 89//174
f 82//175 85//175 87//175
f 87//93 85//93 86//93
f 11//176 85//176 81//176
f 9//177 90//177 88//177
f 83//178 90//178 84//178
f 11//179 87//179 86//179
f 9//180 88//180 89//180
f 82//175 81//175 85//175
f 11//176 86//176 85//176
f 9//181 84//181 90//181
f 83//182 89//182 90//182
f 11//179 82//179 87//179
usemtl eyes.002
f 73//183 76//183 74//183
f 79//184 78//184 77//184
f 73//185 75//185 76//185
f 79//186 80//186 78//186
usemtl beak.002
f 13//187 6//187 31//187
f 41//187 39//187 40//187
f 7//187 36//187 33//187
f 34//188 41//188 33//188
f 35//187 38//187 8//187
f 35//189 44//189 43//189
f 46//187 44//187 45//187
f 36//190 45//190 44//190
f 34//191 39//191 42//191
f 38//192 45//192 37//192
f 31//193 40//193 39//193
f 35//194 46//194 38//194
f 33//195 40//195 32//195
f 94//25 135//25 91//25
f 98//196 133//196 93//196
f 96//197 137//197 97//197
f 92//198 131//198 95//198
f 91//199 136//199 131//199
f 98//200 92//200 96//200
f 102//201 99//201 100//201
f 102//196 105//196 101//196
f 104//202 105//202 106//202
f 100//198 103//198 104//198
f 101//203 103//203 99//203
f 106//200 100//200 104//200
f 110//204 107//204 108//204
f 114//196 109//196 110//196
f 112//205 113//205 114//205
f 112//198 107//198 111//198
f 109//203 111//203 107//203
f 114//200 108//200 112//200
f 118//204 115//204 116//204
f 122//196 117//196 118//196
f 120//205 121//205 122//205
f 120//198 115//198 119//198
f 117//203 119//203 115//203
f 122//200 116//200 120//200
f 126//206 123//206 124//206
f 126//196 129//196 125//196
f 128//207 129//207 130//207
f 124//198 127//198 128//198
f 125//203 127//203 123//203
f 130//200 124//200 128//200
f 134//203 138//203 132//203
f 132//208 137//208 95//208
f 138//209 133//209 97//209
f 134//210 135//210 93//210
f 34//187 8//187 13//187
f 6//187 32//187 31//187
f 31//187 34//187 13//187
f 41//187 42//187 39//187
f 32//187 6//187 5//187
f 7//187 8//187 37//187
f 36//187 35//187 34//187
f 7//187 37//187 36//187
f 32//187 5//187 7//187
f 36//187 34//187 33//187
f 33//187 32//187 7//187
f 34//188 42//188 41//188
f 8//187 34//187 35//187
f 38//187 37//187 8//187
f 35//189 36//189 44//189
f 46//187 43//187 44//187
f 36//190 37//190 45//190
f 34//191 31//191 39//191
f 38//192 46//192 45//192
f 31//193 32//193 40//193
f 35//194 43//194 46//194
f 33//195 41//195 40//195
f 91//25 92//25 94//25
f 94//25 93//25 135//25
f 135//25 136//25 91//25
f 93//196 94//196 98//196
f 98//196 97//196 133//196
f 133//196 134//196 93//196
f 97//197 98//197 96//197
f 96//197 95//197 137//197
f 137//197 138//197 97//197
f 95//198 96//198 92//198
f 92//198 91//198 131//198
f 131//198 132//198 95//198
f 98//200 94//200 92//200
f 102//201 101//201 99//201
f 102//196 106//196 105//196
f 104//202 103//202 105//202
f 100//198 99//198 103//198
f 101//203 105//203 103//203
f 106//200 102//200 100//200
f 110//204 109//204 107//204
f 114//196 113//196 109//196
f 112//205 111//205 113//205
f 112//198 108//198 107//198
f 109//203 113//203 111//203
f 114//200 110//200 108//200
f 118//204 117//204 115//204
f 122//196 121//196 117//196
f 120//205 119//205 121//205
f 120//198 116//198 115//198
f 117//203 121//203 119//203
f 122//200 118//200 116//200
f 126//206 125//206 123//206
f 126//196 130//196 129//196
f 128//207 127//207 129//207
f 124//198 123//198 127//198
f 125//203 129//203 127//203
f 130//200 126//200 124//200
f 132//203 131//203 136//203
f 136//203 135//203 134//203
f 134//203 133//203 138//203
f 138//203 137//203 132//203
f 132//203 136//203 134//203
